<?xml version="1.0" encoding="UTF-8" standalone="no"?>
<!DOCTYPE svg PUBLIC "-//W3C//DTD SVG 1.1//EN" "http://www.w3.org/Graphics/SVG/1.1/DTD/svg11.dtd">
<svg width="100%" height="100%" viewBox="0 0 1158 258" version="1.1" xmlns="http://www.w3.org/2000/svg" xmlns:xlink="http://www.w3.org/1999/xlink" xml:space="preserve" xmlns:serif="http://www.serif.com/" style="fill-rule:evenodd;clip-rule:evenodd;stroke-linejoin:round;stroke-miterlimit:2;">
    <g transform="matrix(1,0,0,1,-2825,-2852)">
        <g id="Artboard3" transform="matrix(2.54505,0,0,0.724719,-4364.78,785.101)">
            <rect x="2825" y="2852" width="455" height="356" style="fill:none;"/>
            <clipPath id="_clip1">
                <rect x="2825" y="2852" width="455" height="356"/>
            </clipPath>
            <g clip-path="url(#_clip1)">
                <g transform="matrix(0.39261,0,0,1.37876,2784.12,2564.06)">
                    <g transform="matrix(1,0,0,1,-1665.57,162.321)">
                        <g transform="matrix(198.962,0,0,198.962,1749,247)">
                            <path d="M0.104,-0L0.2,-0L0.2,-0.311L0.586,-0.311L0.586,-0.399L0.2,-0.399L0.2,-0.64L0.633,-0.64L0.633,-0.728L0.104,-0.728L0.104,-0Z" style="fill:rgb(0,150,136);fill-rule:nonzero;"/>
                        </g>
                        <g transform="matrix(198.962,0,0,198.962,1878.33,247)">
                            <path d="M0.09,-0L0.184,-0L0.184,-0.213C0.184,-0.37 0.274,-0.451 0.39,-0.451L0.396,-0.451L0.396,-0.55C0.296,-0.555 0.222,-0.493 0.184,-0.406L0.184,-0.541L0.09,-0.541L0.09,-0Z" style="fill:rgb(0,150,136);fill-rule:nonzero;"/>
                        </g>
                        <g transform="matrix(198.962,0,0,198.962,1951.74,247)">
                            <path d="M0.33,0.012C0.432,0.012 0.5,-0.028 0.553,-0.089L0.496,-0.14C0.452,-0.095 0.403,-0.067 0.332,-0.067C0.242,-0.067 0.165,-0.128 0.153,-0.236L0.572,-0.236C0.573,-0.247 0.574,-0.255 0.574,-0.265C0.574,-0.423 0.483,-0.553 0.319,-0.553C0.168,-0.553 0.058,-0.427 0.058,-0.271L0.058,-0.269C0.058,-0.101 0.18,0.012 0.33,0.012ZM0.152,-0.303C0.163,-0.402 0.228,-0.474 0.318,-0.474C0.417,-0.474 0.471,-0.396 0.479,-0.303L0.152,-0.303Z" style="fill:rgb(0,150,136);fill-rule:nonzero;"/>
                        </g>
                        <g transform="matrix(198.962,0,0,198.962,2068.53,247)">
                            <path d="M0.33,0.012C0.432,0.012 0.5,-0.028 0.553,-0.089L0.496,-0.14C0.452,-0.095 0.403,-0.067 0.332,-0.067C0.242,-0.067 0.165,-0.128 0.153,-0.236L0.572,-0.236C0.573,-0.247 0.574,-0.255 0.574,-0.265C0.574,-0.423 0.483,-0.553 0.319,-0.553C0.168,-0.553 0.058,-0.427 0.058,-0.271L0.058,-0.269C0.058,-0.101 0.18,0.012 0.33,0.012ZM0.152,-0.303C0.163,-0.402 0.228,-0.474 0.318,-0.474C0.417,-0.474 0.471,-0.396 0.479,-0.303L0.152,-0.303Z" style="fill:rgb(0,150,136);fill-rule:nonzero;"/>
                        </g>
                        <g transform="matrix(198.962,0,0,198.962,2241.03,247)">
                            <path d="M0.104,-0L0.363,-0C0.592,-0 0.75,-0.159 0.75,-0.364L0.75,-0.366C0.75,-0.571 0.592,-0.728 0.363,-0.728L0.104,-0.728L0.104,-0ZM0.363,-0.64C0.537,-0.64 0.649,-0.519 0.649,-0.364L0.649,-0.362C0.649,-0.206 0.537,-0.088 0.363,-0.088L0.2,-0.088L0.2,-0.64L0.363,-0.64Z" style="fill:rgb(0,150,136);fill-rule:nonzero;"/>
                        </g>
                        <g transform="matrix(198.962,0,0,198.962,2396.42,247)">
                            <path d="M0.09,-0L0.184,-0L0.184,-0.213C0.184,-0.37 0.274,-0.451 0.39,-0.451L0.396,-0.451L0.396,-0.55C0.296,-0.555 0.222,-0.493 0.184,-0.406L0.184,-0.541L0.09,-0.541L0.09,-0Z" style="fill:rgb(0,150,136);fill-rule:nonzero;"/>
                        </g>
                        <g transform="matrix(198.962,0,0,198.962,2469.04,247)">
                            <path d="M0.271,-0.061C0.202,-0.061 0.144,-0.098 0.144,-0.161L0.144,-0.163C0.144,-0.227 0.198,-0.268 0.293,-0.268C0.354,-0.268 0.404,-0.257 0.441,-0.245L0.441,-0.198C0.441,-0.117 0.366,-0.061 0.271,-0.061ZM0.25,0.012C0.342,0.012 0.402,-0.03 0.439,-0.077L0.439,-0L0.53,-0L0.53,-0.328C0.53,-0.397 0.512,-0.451 0.474,-0.489C0.435,-0.528 0.376,-0.549 0.298,-0.549C0.217,-0.549 0.158,-0.53 0.099,-0.503L0.126,-0.428C0.175,-0.451 0.224,-0.466 0.287,-0.466C0.384,-0.466 0.44,-0.418 0.44,-0.328L0.44,-0.31C0.393,-0.324 0.347,-0.333 0.28,-0.333C0.145,-0.333 0.051,-0.273 0.051,-0.158L0.051,-0.156C0.051,-0.046 0.149,0.012 0.25,0.012Z" style="fill:rgb(0,150,136);fill-rule:nonzero;"/>
                        </g>
                        <g transform="matrix(198.962,0,0,198.962,2578.67,247)">
                            <path d="M0.23,0.004L0.313,0.004L0.452,-0.405L0.59,0.004L0.673,0.004L0.859,-0.541L0.763,-0.541L0.63,-0.126L0.492,-0.543L0.413,-0.543L0.275,-0.126L0.143,-0.541L0.045,-0.541L0.23,0.004Z" style="fill:rgb(0,150,136);fill-rule:nonzero;"/>
                        </g>
                        <g transform="matrix(198.962,0,0,198.962,2806.09,247)">
                            <path d="M0.042,-0L0.61,-0L0.61,-0.159L0.306,-0.159L0.43,-0.247C0.542,-0.33 0.603,-0.39 0.603,-0.508L0.603,-0.51C0.603,-0.647 0.495,-0.74 0.338,-0.74C0.2,-0.74 0.124,-0.685 0.047,-0.585L0.178,-0.476C0.235,-0.542 0.273,-0.571 0.324,-0.571C0.375,-0.571 0.409,-0.542 0.409,-0.493C0.409,-0.445 0.38,-0.41 0.308,-0.353L0.042,-0.147L0.042,-0Z" style="fill:rgb(0,150,136);fill-rule:nonzero;"/>
                        </g>
                    </g>
                    <g>
                        <g transform="matrix(198.962,0,0,198.962,1140.51,409.321)">
                            <path d="M0.042,-0L0.61,-0L0.61,-0.159L0.306,-0.159L0.43,-0.247C0.542,-0.33 0.603,-0.39 0.603,-0.508L0.603,-0.51C0.603,-0.647 0.495,-0.74 0.338,-0.74C0.2,-0.74 0.124,-0.685 0.047,-0.585L0.178,-0.476C0.235,-0.542 0.273,-0.571 0.324,-0.571C0.375,-0.571 0.409,-0.542 0.409,-0.493C0.409,-0.445 0.38,-0.41 0.308,-0.353L0.042,-0.147L0.042,-0Z" style="fill:rgb(0,150,136);fill-rule:nonzero;"/>
                        </g>
                        <g transform="matrix(-0.356374,-0.0996563,0.0996563,-0.356374,1270.98,425.029)">
                            <path d="M54.438,29.794C54.037,29.787 53.635,29.791 53.234,29.804C48.546,29.961 45.32,31.54 43.121,33.739C40.189,36.671 38.36,41.428 39.533,49.044C40.707,56.66 45.216,66.798 54.805,77.985C89.912,118.944 124.257,159.138 156.259,196.205C186.147,230.823 213.992,262.714 238.508,289.954C250.781,303.591 262.201,316.034 272.633,327.089C284.728,295.187 307.203,272.945 335.535,262.374C324.71,252.175 312.599,241.061 299.338,229.126C272.333,204.821 240.757,177.244 206.485,147.649C169.169,115.426 128.657,80.81 87.369,45.42C76.183,35.831 66.044,31.322 58.428,30.148C57.108,29.94 55.774,29.821 54.438,29.793L54.438,29.794ZM350.221,276.434C319.76,284.061 296.98,305.619 286.613,341.653C292.265,347.438 297.569,352.738 302.393,357.36C309.973,364.624 316.488,370.367 321.603,374.317C323.379,357.092 331.648,341.255 343.248,329.626C353.849,318.998 367.744,311.62 382.373,310.534C378.502,305.698 373.233,299.783 366.743,293.01C361.905,287.963 356.328,282.387 350.221,276.434ZM385.572,328.384C375.175,328.521 364.643,333.664 355.99,342.339C344.453,353.904 337.316,371.189 339.723,388.039C345.057,425.381 363.472,453.849 389.183,469.276C411.91,482.912 440.635,486.626 472.826,476.259C448.604,472.249 426.351,445.553 424.629,425.609C435.259,438.423 448.569,450.156 463.055,457.359C453.174,434.781 453.854,411.907 451.967,393.038C450.615,379.516 448.076,368.056 440.59,357.876C433.104,347.696 420.167,338.076 395.85,329.969C392.537,328.867 389.063,328.331 385.572,328.384Z" style="fill:url(#_Linear2);fill-rule:nonzero;"/>
                        </g>
                        <g transform="matrix(198.962,0,0,198.962,1140.51,409.321)">
                            <path d="M0.042,-0L0.61,-0L0.61,-0.159L0.306,-0.159L0.43,-0.247C0.542,-0.33 0.603,-0.39 0.603,-0.508L0.603,-0.51C0.603,-0.647 0.409,-0.542 0.409,-0.493C0.409,-0.445 0.38,-0.41 0.308,-0.353L0.042,-0.147L0.042,-0Z" style="fill:rgb(0,150,136);fill-rule:nonzero;"/>
                        </g>
                    </g>
                </g>
            </g>
        </g>
    </g>
    <defs>
        <linearGradient id="_Linear2" x1="0" y1="0" x2="1" y2="0" gradientUnits="userSpaceOnUse" gradientTransform="matrix(313.472,323.677,-323.677,313.472,163.566,150.797)"><stop offset="0" style="stop-color:rgb(75,142,136);stop-opacity:1"/><stop offset="1" style="stop-color:rgb(188,238,233);stop-opacity:1"/></linearGradient>
    </defs>
</svg>
